<svg width="1255" height="1100" viewBox="0 0 1255 1100" fill="none" xmlns="http://www.w3.org/2000/svg">
<g clip-path="url(#clip0_373_493)">
<path d="M977.038 78.561C968.474 83.5026 959.94 91.4966 952.166 101.859C943.707 110.513 936.03 122.123 930.017 135.353C929.366 137.212 928.982 139.126 928.902 140.904C928.822 142.682 929.049 144.262 929.561 145.487C930.072 146.713 930.851 147.542 931.819 147.891C932.787 148.24 933.911 148.098 935.079 147.479C943.219 140.973 951.089 132.114 958.172 121.484C966.011 112.478 973.355 101.901 979.903 90.1848C980.69 88.7067 981.264 87.0433 981.552 85.4054C981.84 83.7675 981.831 82.2288 981.524 80.9841C981.217 79.7394 980.627 78.8448 979.828 78.4135C979.03 77.9821 978.059 78.0334 977.038 78.561Z" fill="#DA2D57"/>
<path d="M1142.39 139.933C1144.4 138.482 1145.95 136.48 1146.85 134.167C1147.75 131.855 1147.97 129.331 1147.47 126.899C1146.97 124.468 1145.78 122.233 1144.04 120.464C1142.3 118.694 1140.08 117.466 1137.66 116.926C1076.64 115.91 1016.66 132.675 965.011 165.175C962.732 166.743 961.033 169.019 960.179 171.65C959.325 174.281 959.362 177.12 960.285 179.728C961.208 182.336 962.966 184.566 965.285 186.074C967.604 187.582 970.356 188.283 973.114 188.068C1002.6 185.194 1031.63 178.738 1059.56 168.845C1088.18 162.39 1115.97 152.69 1142.39 139.933Z" fill="#DA2D57"/>
<path d="M1139.93 227.066C1115.95 222.997 1091.42 222.429 1067.7 225.393C1043.63 226.511 1020.21 230.669 998.43 237.694C995.569 238.709 993.268 240.405 991.864 242.535C990.46 244.664 990.027 247.116 990.625 249.534C991.224 251.951 992.824 254.206 995.193 255.971C997.562 257.736 1000.58 258.919 1003.79 259.346C1027.98 260.909 1052.14 260.059 1075.66 256.819C1099.43 255.662 1122.62 251.799 1144.44 245.361C1146.87 244.509 1148.82 243.079 1150.01 241.279C1151.21 239.48 1151.58 237.406 1151.07 235.36C1150.57 233.315 1149.22 231.407 1147.21 229.914C1145.21 228.422 1142.66 227.423 1139.93 227.066Z" fill="#DA2D57"/>
<path d="M1172.92 350.236C1150.97 339.096 1125.65 329.486 1098.54 321.998C1076.32 314.831 1051.89 310.744 1029.26 310.403C1028.07 310.471 1027.03 310.678 1026.22 311.01C1025.4 311.341 1024.84 311.787 1024.57 312.314C1024.3 312.841 1024.33 313.434 1024.65 314.049C1024.98 314.663 1025.6 315.282 1026.46 315.858C1044.95 324.957 1066.52 332.528 1089.41 337.952C1114.37 345.139 1139.75 351.739 1165.42 357.717C1177.18 360.452 1180.62 354.166 1172.92 350.236Z" fill="#DA2D57"/>
<path d="M1065.53 388.341C1059.75 384.653 1053.79 381.26 1047.67 378.177C1046.93 377.832 1046.1 377.711 1045.29 377.829C1044.48 377.947 1043.72 378.3 1043.11 378.843C1042.49 379.386 1042.05 380.097 1041.84 380.888C1041.62 381.678 1041.64 382.515 1041.89 383.294C1042.7 387.146 1044.09 390.854 1046.01 394.292C1048.28 397.763 1051.16 400.802 1054.49 403.27C1060.42 409.185 1068.41 412.552 1076.78 412.652C1078.05 412.518 1079.27 412.062 1080.31 411.328C1081.36 410.594 1082.2 409.606 1082.76 408.457C1083.32 407.307 1083.57 406.035 1083.5 404.759C1083.43 403.484 1083.04 402.247 1082.36 401.166C1078.93 395.098 1070.88 391.819 1065.53 388.341Z" fill="#DA2D57"/>
<path d="M1179.62 247.554C1186.15 247.381 1192.73 247.057 1199.34 246.228C1205.96 245.399 1214.97 240.981 1214.79 232.305C1214.57 215.003 1189.14 221.795 1179.42 223.542C1176.87 224.327 1174.58 226.034 1172.95 228.372C1171.32 230.709 1170.44 233.533 1170.46 236.363C1170.48 239.193 1171.41 241.855 1173.08 243.895C1174.75 245.935 1177.06 247.228 1179.62 247.554Z" fill="#DA2D57"/>
<path d="M322.857 697.922C326.643 697.733 329.961 696.56 332.153 694.633C334.345 692.707 335.252 690.168 334.693 687.52C334.135 684.871 332.151 682.306 329.137 680.332C326.122 678.358 322.296 677.12 318.415 676.862C283.702 674.261 249.134 673.205 214.933 673.699C183.806 673.57 148.114 672.814 119.935 679.763C118.029 680.173 116.463 681.012 115.461 682.157C114.459 683.301 114.074 684.694 114.361 686.133C114.648 687.572 115.593 688.984 117.059 690.164C118.525 691.344 120.436 692.233 122.517 692.701C153.795 699.957 189.29 699.756 220.492 700.15C254.993 700.91 289.183 700.165 322.857 697.922Z" fill="#DA2D57"/>
<path d="M226.624 768.664C266.819 764.981 299.588 746.437 336.273 732.412C337.088 731.991 337.725 731.29 338.063 730.437C338.402 729.583 338.419 728.637 338.114 727.771C337.808 726.906 337.2 726.18 336.401 725.729C335.602 725.277 334.666 725.131 333.767 725.316C295.378 734.434 258.021 737.645 222.595 757.306C217.069 760.113 220.708 769.259 226.624 768.664Z" fill="#DA2D57"/>
<path d="M357.459 758.783C309.268 778.459 263.394 800.519 220.163 824.806C177.203 847.46 123.098 869.156 92.8954 900.347C91.3795 902.483 90.8332 904.928 91.323 907.388C91.8128 909.848 93.3176 912.217 95.656 914.212C97.9945 916.207 101.067 917.741 104.504 918.631C107.941 919.52 111.595 919.727 115.028 919.226C166.574 905.551 209.328 874.448 250.546 850.583C294.645 826.874 336.051 800.958 374.472 773.019C383.379 766.965 369.166 754.566 357.459 758.783Z" fill="#DA2D57"/>
<path d="M367.625 797.142C344.708 819.155 325.988 845.154 312.38 873.869C311.976 874.863 311.924 875.965 312.234 876.993C312.544 878.02 313.197 878.911 314.083 879.515C314.969 880.12 316.036 880.403 317.106 880.317C318.175 880.231 319.183 879.781 319.961 879.042C343.759 857.638 361.95 830.728 372.942 800.667C373.409 799.962 373.578 799.1 373.409 798.271C373.241 797.442 372.751 796.713 372.046 796.246C371.341 795.779 370.479 795.61 369.65 795.779C368.82 795.947 368.092 796.437 367.625 797.142Z" fill="#DA2D57"/>
<path d="M398.982 830.628C390.303 840.267 379.968 854.975 380.935 868.515C380.984 869.04 381.167 869.545 381.468 869.978C381.769 870.412 382.178 870.76 382.653 870.989C383.129 871.218 383.656 871.32 384.182 871.284C384.709 871.249 385.218 871.077 385.659 870.787C396.26 862.2 399.952 844.547 400.772 831.578C400.759 831.376 400.693 831.18 400.583 831.009C400.473 830.839 400.321 830.7 400.142 830.605C399.962 830.509 399.761 830.461 399.558 830.465C399.355 830.47 399.157 830.525 398.982 830.628Z" fill="#DA2D57"/>
<path d="M141.875 619.839C163.76 638.264 209.491 649.917 236.299 637.964C238.28 637.183 239.997 635.852 241.245 634.127C242.492 632.402 243.22 630.356 243.342 628.23C243.463 626.105 242.973 623.989 241.93 622.133C240.886 620.277 239.333 618.758 237.454 617.757C224.078 610.816 209.525 606.431 194.54 604.829C180.066 601.151 165.214 599.163 150.281 598.906C147.894 598.989 145.582 599.764 143.626 601.137C141.671 602.509 140.156 604.42 139.265 606.637C138.375 608.854 138.148 611.282 138.611 613.625C139.074 615.969 140.208 618.128 141.875 619.839Z" fill="#DA2D57"/>
<path fill-rule="evenodd" clip-rule="evenodd" d="M607.598 271.783C607.598 271.783 543.717 519.995 536.398 620.185C529.079 720.375 527.504 762.182 595.658 801.213C663.812 840.244 776.416 816.485 809.841 732.08C843.266 647.676 889.217 330.012 889.217 330.012C889.217 330.012 709.961 204.935 607.598 271.783Z" fill="#F7C099"/>
<path fill-rule="evenodd" clip-rule="evenodd" d="M576.221 401.649C555.896 385.001 529.351 384.155 510.579 415.15C494.057 442.328 515.135 478.772 542.389 495.688C546.317 498.1 550.486 500.095 554.828 501.642C561.219 468.346 568.929 433.71 576.221 401.649Z" fill="#F7C099"/>
<path fill-rule="evenodd" clip-rule="evenodd" d="M537.747 492.597C539.276 493.725 540.833 494.706 542.389 495.688C546.317 498.1 550.486 500.095 554.828 501.642C558.887 480.493 563.512 458.771 568.258 437.603C564.654 435.806 560.702 434.815 556.676 434.697C533.289 434.001 526.94 469.05 537.967 492.639L537.747 492.597Z" fill="#F29877"/>
<path fill-rule="evenodd" clip-rule="evenodd" d="M867.769 466.261C901.588 432.767 954.541 428.06 963.924 484.718C969.714 518.986 933.574 547.178 899.134 553.466C883.53 556.51 867.352 553.405 853.984 544.8C859.111 518.09 863.593 491.181 867.825 465.968L867.769 466.261Z" fill="#F7C099"/>
<path fill-rule="evenodd" clip-rule="evenodd" d="M905.072 552.178L899.134 553.466C883.529 556.51 867.352 553.405 853.984 544.8L854.447 542.385L856.372 532.36L857.551 526.213L858.282 522.407L858.731 520.066L859.448 516.334L860.656 510.04L861.119 507.626L861.358 506.382L861.836 503.894C873.261 492.202 891.09 479.16 909.833 485.868C933.721 494.626 926.184 532.71 905.598 552.203L905.072 552.178Z" fill="#F29877"/>
<path fill-rule="evenodd" clip-rule="evenodd" d="M596.329 480.7C596.329 480.7 584.452 454.823 564.439 453.941C544.426 453.059 550.174 480.035 573.175 487.485C596.177 494.935 600.871 487.869 596.256 480.686L596.329 480.7Z" fill="#F4846E"/>
<path fill-rule="evenodd" clip-rule="evenodd" d="M805.535 521.691C805.535 521.691 829.656 494.454 854.177 501.892C878.698 509.331 861.404 540.533 830.696 540.026C799.989 539.519 797.202 528.741 805.535 521.691Z" fill="#F4846E"/>
<path fill-rule="evenodd" clip-rule="evenodd" d="M607.598 271.783C607.598 271.783 602.972 289.56 596.101 317.452C626.769 311.047 702.988 296.997 756.811 302.776C814.527 309.226 864.189 375.815 878.983 397.168C885.276 356.873 889.246 329.866 889.246 329.866C889.246 329.866 709.961 204.935 607.598 271.783Z" fill="#F29877"/>
<path fill-rule="evenodd" clip-rule="evenodd" d="M880.67 377.31C880.67 377.31 919.479 293.711 903.414 242.22C887.348 190.728 818.185 145.889 710.168 161.954C602.151 178.019 547.414 182.536 520.829 140.786C494.245 99.036 521.241 54.4448 521.241 54.4448C521.241 54.4448 462.423 67.9655 455.737 125.332C449.05 182.699 494.151 201.903 494.151 201.903C485.048 208.024 474.371 211.385 463.403 211.581C452.436 211.778 441.645 208.802 432.329 203.01C397.264 183.305 403.353 156.325 403.353 156.325C403.353 156.325 344.951 262.947 405.622 318.827C455.55 365.057 537.257 344.549 600.495 313.136C696.734 265.144 846.121 239.493 880.6 377.676L880.67 377.31Z" fill="#42231E"/>
<path fill-rule="evenodd" clip-rule="evenodd" d="M520.579 611.685C510.072 632.431 487.456 680.29 480.588 720.02C475.432 753.91 476.303 788.445 483.162 822.033C483.162 822.033 483.03 853.95 468.886 871.114C460.478 881.435 449.226 889.063 436.525 893.052C446.274 898.592 456.812 902.611 467.774 904.968C481.922 907.152 498.333 892.017 498.333 892.017C498.333 892.017 497.435 930.692 426.995 947.445C356.556 964.197 332.522 949.872 332.522 949.872C332.522 949.872 349.568 1029.85 416.456 1047.02C483.345 1064.18 524.037 1055.75 524.037 1055.75C514.345 1063.09 503.56 1068.85 492.078 1072.84C484.08 1074.81 475.902 1075.96 467.67 1076.27C467.67 1076.27 536.539 1105.65 656.015 1046.49C775.491 987.327 786.387 879.174 786.387 879.174C787.818 893.399 787.963 907.723 786.821 921.974C785.855 930.962 784 939.832 781.283 948.453C805.041 937.315 824.163 918.227 835.344 894.489C855.022 854.032 854.269 832.264 854.269 832.264C860.276 841.79 867.545 850.46 875.878 858.035C888.132 868.506 909.382 864.922 909.382 864.922C903.951 840.866 900.603 816.386 899.374 791.755C897.562 763.191 898.166 734.524 901.179 706.061C866.505 712.827 830.69 710.829 796.983 700.249C776.716 693.975 757.471 684.786 739.851 672.97C699.514 806.428 608.564 767.574 628.561 713.597L587.974 711.193C587.974 711.193 593.324 756.454 556.57 745.151C525.558 735.556 541.151 633.768 546.71 602.437C538.451 605.935 529.415 609.132 520.303 611.936L520.579 611.685Z" fill="#42231E"/>
<path fill-rule="evenodd" clip-rule="evenodd" d="M520.579 611.685C518.146 616.454 515.053 622.689 511.689 629.934L543.362 623.039C544.963 614.697 545.842 607.354 546.693 602.13C538.434 605.628 529.398 608.826 520.286 611.629L520.579 611.685ZM899.756 724.15C900.283 716.663 900.95 710.418 901.399 706.104C866.65 712.893 830.755 710.881 796.982 700.249C776.716 693.976 757.471 684.786 739.851 672.97C738.071 679.078 736.157 684.704 734.051 690.142C762.96 705.655 794.338 716.042 826.793 720.843C850.77 725.754 875.356 726.968 899.7 724.442L899.756 724.15Z" fill="#301A16"/>
<path fill-rule="evenodd" clip-rule="evenodd" d="M642.233 509.162C642.233 509.162 623.217 473.038 544.628 482.84C466.038 492.641 428.469 513.655 383.137 485.378C337.805 457.101 367.435 403.531 388.941 399.01C401.409 396.197 414.433 397.191 426.33 401.862C426.33 401.862 390.646 373.919 358.195 393.563C325.744 413.207 323.413 459.346 323.413 459.346C317.687 455.796 312.675 451.206 308.636 445.812C305.566 439.373 303.685 432.431 303.085 425.323C295.437 437.811 290.648 451.837 289.061 466.395C287.473 480.953 289.127 495.682 293.903 509.525C298.484 523.423 306.676 535.855 317.641 545.545C328.607 555.236 341.951 561.838 356.307 564.675C350.678 568.917 344.098 571.717 337.139 572.832C332.077 573.373 326.979 573.486 321.899 573.17C321.899 573.17 348.702 611.016 440.759 621.175C532.817 631.333 626.444 557.422 626.444 557.422C626.444 557.422 701.016 672.117 796.983 700.249C892.95 728.382 947.365 687.992 947.365 687.992L916.641 672.155C916.641 672.155 997.671 679.286 1028.89 651.819C1060.11 624.351 1060.55 599.548 1060.55 599.548L1021.37 617.9C1034.1 595.621 1040.1 570.128 1038.64 544.508C1035.85 502.924 1008.11 490.089 1008.11 490.089C1008.11 490.089 1037.98 585.504 947.873 595.22C943.432 595.671 938.967 595.828 934.505 595.689C901.735 594.861 862.996 580.066 831.427 562.701C775.026 531.617 724.698 492.214 642.013 509.12L642.233 509.162Z" fill="#42231E"/>
<path d="M525.745 527.851C526.245 527.493 526.616 526.982 526.8 526.396C526.984 525.809 526.973 525.178 526.767 524.598C526.561 524.019 526.172 523.522 525.659 523.184C525.146 522.845 524.536 522.682 523.922 522.721C505.827 524.103 488.25 530.289 470.07 532.111C450.985 534.18 431.687 533.041 412.978 528.74C396.874 524.893 381.477 518.532 367.354 509.891C352.5 499.888 340.367 486.347 332.048 470.488C331.471 469.543 330 470.095 330.36 471.378C342.83 502.073 373.917 527.084 404.932 537.059C424.697 543.142 445.451 545.347 466.053 543.555C485.874 542.276 509.33 538.66 525.745 527.851Z" fill="#633A36"/>
<path d="M974.668 618.876C950.875 624.248 929.018 630.6 904.272 629.871C880.861 629.273 857.851 623.666 836.789 613.428C796.127 593.635 766.021 557.582 724.247 539.624C722.707 538.949 721.512 541.224 723.038 541.972C769.369 563.46 800.153 607.837 847.379 627.828C886.057 644.129 940.555 648.368 977.389 624.861C981.216 622.713 978.228 618.118 974.668 618.876Z" fill="#633A36"/>
<path d="M872.06 667.239C854.549 667.26 837.155 664.383 820.583 658.724C805.038 652 790.324 643.498 776.736 633.388C763.637 624.837 751.243 615.253 739.672 604.726C728.865 594.229 723.127 579.85 711.61 570.279C711.429 570.124 711.192 570.047 710.954 570.065C710.716 570.083 710.495 570.195 710.339 570.377C710.183 570.558 710.106 570.794 710.125 571.032C710.143 571.271 710.255 571.492 710.437 571.648C721.901 583.863 727.825 599.644 740.077 611.708C753.428 625.121 767.654 637.636 782.66 649.168C806.709 667.366 841.768 686.311 872.558 674.922C876.056 673.697 876.271 667.44 872.06 667.239Z" fill="#633A36"/>
<path d="M525.484 562.019C493.737 569.535 460.697 569.731 428.863 562.593C426.375 562.116 424.87 566 427.406 567.018C459.745 578.097 494.911 577.721 527.005 565.953C529.44 565.131 527.744 561.315 525.484 562.019Z" fill="#633A36"/>
<path d="M372.495 547.145C365.06 541.288 356.774 536.602 347.924 533.248C347.412 533.15 346.919 533.738 347.316 534.042C354.033 540.726 361.73 546.348 370.14 550.714C370.61 550.934 371.143 550.977 371.642 550.836C372.142 550.695 372.574 550.38 372.859 549.947C373.145 549.514 373.265 548.992 373.198 548.478C373.131 547.964 372.881 547.49 372.495 547.145Z" fill="#633A36"/>
<path d="M583.312 503.846C571.483 493.533 548.537 498.84 537.102 507.42C536.976 507.538 536.886 507.69 536.844 507.859C536.803 508.027 536.811 508.204 536.868 508.367C536.925 508.531 537.029 508.675 537.166 508.781C537.303 508.887 537.467 508.951 537.64 508.965C545.229 507.531 552.968 507.054 560.675 507.544C567.276 509.192 574.025 510.182 580.821 510.5C581.575 510.461 582.3 510.202 582.909 509.756C583.517 509.31 583.982 508.696 584.247 507.989C584.511 507.283 584.564 506.514 584.398 505.779C584.232 505.043 583.855 504.371 583.312 503.846Z" fill="#633A36"/>
<path d="M707.593 606.231C699.18 592.923 687.836 581.714 674.428 573.461C672.21 571.973 668.983 574.161 670.683 576.764C679.06 590.35 690.425 601.847 703.913 610.381C706.657 611.894 708.823 608.516 707.593 606.231Z" fill="#633A36"/>
<path d="M855.432 737.266C855.473 737.052 855.428 736.831 855.306 736.651C855.184 736.471 854.996 736.347 854.782 736.306C854.569 736.265 854.347 736.311 854.167 736.433C853.987 736.555 853.863 736.743 853.822 736.957C846.729 758.888 842.682 783.529 856.027 804.528C856.49 805.156 857.142 805.619 857.888 805.85C858.634 806.08 859.433 806.066 860.17 805.808C860.907 805.551 861.542 805.064 861.982 804.42C862.421 803.775 862.643 803.006 862.614 802.226C860.254 780.529 853.453 759.041 855.432 737.266Z" fill="#633A36"/>
<path d="M794.841 757.654C795.921 748.074 800.016 738.996 800.643 729.404L799.984 729.278C789.297 741.87 787.253 764.771 786.223 780.811C784.697 801.02 787.002 821.335 793.016 840.689C793.869 843.357 797.294 842.117 797.451 839.719C798.393 821.766 795.288 803.947 794.55 786.051C793.924 776.591 794.022 767.098 794.841 757.654Z" fill="#633A36"/>
<path d="M740.877 718.615C716.63 778.529 706.726 843.17 682.698 903.126C671.692 932.362 655.356 959.301 634.519 982.574C613.099 1005.63 587.589 1019.55 561.618 1036.26C557.823 1038.64 561.092 1043.75 564.914 1042.81C622.617 1028.77 666.703 971.832 688.485 920.019C715.491 856.006 719.283 785.261 744.21 720.621C745.168 717.998 741.779 716.285 740.877 718.615Z" fill="#633A36"/>
<path d="M750.557 789.139C744.069 817.409 748.604 846.352 743.9 874.813C738.416 903.886 726.633 931.407 709.379 955.441C709.024 955.968 708.873 956.607 708.955 957.237C709.038 957.868 709.347 958.446 709.826 958.865C710.305 959.283 710.92 959.512 711.556 959.508C712.192 959.504 712.804 959.269 713.279 958.845C732.606 938.75 745.703 913.489 750.988 886.112C757.593 854.072 749.131 821.87 754.29 789.856C754.385 789.361 754.279 788.848 753.996 788.431C753.713 788.014 753.277 787.726 752.782 787.631C752.287 787.536 751.775 787.642 751.357 787.925C750.94 788.207 750.652 788.644 750.557 789.139Z" fill="#633A36"/>
<path d="M636.086 811.553C635.884 810.961 635.492 810.453 634.97 810.107C634.449 809.762 633.827 809.599 633.204 809.644C632.58 809.689 631.988 809.939 631.522 810.355C631.055 810.772 630.739 811.331 630.624 811.946C627.182 869.404 613.761 927.072 566.766 965.169C545.458 982.527 519.888 993.858 492.715 997.983C465.543 1002.11 437.762 998.876 412.262 988.624C412.035 988.525 411.778 988.518 411.545 988.603C411.313 988.688 411.122 988.859 411.011 989.08C410.9 989.302 410.879 989.558 410.951 989.795C411.023 990.032 411.184 990.232 411.399 990.355C462.182 1018.69 528.144 1010.64 573.71 974.848C620.041 937.837 648.996 870.784 636.086 811.553Z" fill="#633A36"/>
<path d="M551.596 782.133C551.568 781.759 551.467 781.394 551.298 781.059C551.129 780.724 550.896 780.426 550.611 780.181C550.038 779.687 549.291 779.441 548.536 779.497C547.78 779.553 547.078 779.907 546.584 780.481C546.089 781.055 545.843 781.802 545.9 782.557C547.097 798.262 544.076 814.001 537.149 828.147C530.385 841.644 519.832 850.772 511.244 862.705C509.826 864.557 511.445 867.978 514.082 866.891C543.56 854.036 554.259 810.945 551.596 782.133Z" fill="#633A36"/>
<path d="M544.68 907.894C542.947 910.596 546.753 913.299 549.167 911.79C583.776 889.601 578.847 840.172 579.556 805.254C578.014 824.55 574.354 843.618 568.642 862.113C562.829 878.416 554.763 893.826 544.68 907.894Z" fill="#633A36"/>
<path d="M512.616 770.174C511.477 742.11 510.616 715.768 518.602 688.394C519.051 686.052 515.682 685.026 514.689 687.035C502.175 712.707 496.134 744.173 506.678 771.463C506.915 772.179 507.408 772.782 508.063 773.156C508.719 773.53 509.489 773.649 510.226 773.489C510.963 773.329 511.616 772.902 512.057 772.29C512.498 771.678 512.697 770.924 512.616 770.174Z" fill="#633A36"/>
<path d="M521.204 767.726C520.517 782.471 520.671 797.244 521.664 811.972C521.794 813.667 524.544 813.967 524.735 812.183C526.515 797.255 527.471 782.241 527.601 767.208C527.628 763.116 521.391 763.588 521.204 767.726Z" fill="#633A36"/>
<path d="M662.196 799.645C659.473 819.76 655.946 839.72 653.15 859.821C652.714 862.09 656.364 863.625 657.281 861.221C663.901 841.468 666.715 820.639 665.574 799.838C665.486 797.924 662.415 797.714 662.196 799.645Z" fill="#633A36"/>
<path d="M463.33 970.808C478.329 968.361 492.619 962.691 505.216 954.189C508.038 952.53 505.172 948.49 502.364 950.075C489.468 956.605 476.161 962.288 462.527 967.088C460.619 967.936 461.082 971.06 463.33 970.808Z" fill="#633A36"/>
<path d="M611.997 774.986C612.385 764.666 612.758 754.419 613.512 744.169C613.515 743.646 613.336 743.139 613.005 742.735C612.673 742.332 612.211 742.057 611.698 741.958C611.185 741.86 610.654 741.944 610.196 742.196C609.739 742.449 609.385 742.853 609.195 743.34C606.238 753.873 606.117 765 608.845 775.595C609.372 777.593 611.981 776.652 611.997 774.986Z" fill="#633A36"/>
<path d="M585.858 766.099C584.492 771.767 584.295 777.653 585.28 783.399C586.264 789.145 588.408 794.63 591.582 799.52C592.852 801.205 596.193 800.405 595.809 798.055C594.935 792.728 593.098 787.671 592.105 782.17C591.113 776.668 590.824 771.453 589.803 766.098C589.712 765.642 589.465 765.231 589.105 764.937C588.746 764.642 588.295 764.481 587.83 764.481C587.365 764.481 586.914 764.643 586.555 764.938C586.195 765.233 585.949 765.643 585.858 766.099Z" fill="#633A36"/>
<path d="M757.586 760.822C762.718 748.844 766.588 736.364 769.134 723.584C769.836 719.925 764.613 719.074 763.573 722.517C759.11 734.515 755.887 746.939 753.952 759.593C753.867 760.052 753.95 760.526 754.186 760.928C754.422 761.33 754.794 761.634 755.236 761.784C755.678 761.933 756.159 761.918 756.591 761.741C757.022 761.565 757.376 761.238 757.586 760.822Z" fill="#633A36"/>
<path d="M375.854 984.215C374.897 983.273 373.417 984.658 374.127 985.704C385.683 1002.19 398.666 1019.93 417.626 1028.27C418.255 1028.57 418.968 1028.62 419.635 1028.44C420.303 1028.25 420.882 1027.83 421.268 1027.25C421.653 1026.68 421.82 1025.98 421.737 1025.29C421.655 1024.6 421.329 1023.97 420.818 1023.5C407.305 1008.92 389.833 998.355 375.854 984.215Z" fill="#633A36"/>
<path d="M684.312 986.821C680.442 996.904 674.573 1006.1 667.058 1013.86C665.682 1015.49 667.403 1018.78 669.674 1017.62C675.113 1014.55 679.637 1010.09 682.78 1004.69C685.923 999.295 687.571 993.159 687.557 986.913C687.66 985.188 684.841 985.253 684.312 986.821Z" fill="#633A36"/>
<path d="M757.822 199.478C783.29 202.773 809.927 202.348 833.001 215.35C853.549 226.882 861.497 243.582 866.348 266.137C866.222 266.796 867.714 266.931 867.885 266.432C875.286 246.456 860.432 223.044 845.489 210.767C821.662 191.019 787.574 187.966 757.873 192.887C754.69 193.262 753.741 198.998 757.822 199.478Z" fill="#633A36"/>
<path d="M722.159 242.178C750.684 238.245 776.937 233.497 804.986 245.482C805.493 245.638 806.038 245.61 806.525 245.402C807.013 245.194 807.41 244.819 807.647 244.345C807.884 243.871 807.945 243.329 807.819 242.814C807.692 242.299 807.387 241.846 806.958 241.535C781.391 227.295 747.013 219.027 719.776 234.437C719.077 234.974 718.559 235.712 718.291 236.552C718.024 237.392 718.019 238.293 718.279 239.135C718.538 239.978 719.049 240.721 719.742 241.265C720.436 241.808 721.279 242.127 722.159 242.178Z" fill="#633A36"/>
<path d="M851.636 283.496C849.933 282.486 847.406 284.581 848.341 286.429C850.51 290.943 853.669 295.039 855.88 299.333C858.091 303.627 860.001 308.698 861.908 313.389C862.15 313.909 862.563 314.332 863.078 314.587C863.592 314.842 864.178 314.915 864.739 314.793C865.301 314.672 865.804 314.363 866.167 313.918C866.53 313.473 866.731 312.917 866.736 312.343C866.731 306.673 865.355 301.09 862.726 296.067C860.097 291.044 856.292 286.731 851.636 283.496Z" fill="#633A36"/>
<path d="M540.191 219.769C562.178 229.27 586.753 230.961 609.834 224.563C613.799 223.275 613.774 216.29 609.197 216.019C587.969 214.751 567.698 216.399 546.996 209.618C527.583 203.236 508.104 192.062 497.952 173.8C497.093 172.346 495.059 173.852 495.772 175.279C504.805 194.927 520.557 210.705 540.191 219.769Z" fill="#633A36"/>
<path d="M524.038 303.923C566.908 303.123 619.774 288.991 651.424 258.495C654.587 255.46 650.58 249.456 646.576 251.343C629.917 259.071 614.107 268.707 596.461 275.259C578.189 282.279 559.132 287.054 539.709 289.48C499.004 294.414 447.759 289.433 433.972 243.463C433.417 241.611 430.266 242.22 430.573 244.176C438.159 287.666 484.821 304.666 524.038 303.923Z" fill="#633A36"/>
<path d="M578.173 249.973C557.778 250.687 539.308 254.805 518.594 252.043C516.472 251.635 515.181 254.802 517.351 255.75C536.649 264.31 561.465 268.238 580.908 257.858C584.895 255.664 582.059 249.885 578.173 249.973Z" fill="#633A36"/>
<path d="M672.921 211.331C681.821 210.141 690.41 207.257 698.224 202.834C698.651 202.55 698.971 202.133 699.135 201.648C699.299 201.163 699.296 200.637 699.129 200.153C698.961 199.669 698.637 199.255 698.208 198.975C697.779 198.695 697.269 198.566 696.759 198.607C688.036 199.168 679.492 201.335 671.556 204.999C668.278 206.266 669.127 212.12 672.921 211.331Z" fill="#633A36"/>
<path fill-rule="evenodd" clip-rule="evenodd" d="M754.014 320.904C758.085 314.757 763.783 309.863 770.473 306.766C777.164 303.669 784.583 302.492 791.903 303.366C817.312 306.574 812.148 341.774 812.148 341.774L754.014 320.904Z" fill="#42231E"/>
<path fill-rule="evenodd" clip-rule="evenodd" d="M629.012 327.032C630.098 321.702 632.47 316.718 635.922 312.515C639.373 308.311 643.8 305.014 648.816 302.912C664.983 297.744 680.319 315.484 680.319 315.484C680.319 315.484 629.11 326.519 629.158 327.06L629.012 327.032Z" fill="#42231E"/>
<path fill-rule="evenodd" clip-rule="evenodd" d="M746.559 401.644C746.559 401.644 745.26 445.174 764.901 452.737C784.542 460.301 795.174 410.444 795.174 410.444C795.174 410.444 779.329 442.001 765.483 435.474C751.637 428.947 747.347 403.464 746.587 401.498L746.559 401.644Z" fill="#46231F"/>
<path fill-rule="evenodd" clip-rule="evenodd" d="M603.74 377.265C603.74 377.265 602.441 420.795 622.096 428.285C641.751 435.776 652.369 385.992 652.369 385.992C652.369 385.992 636.583 417.637 622.664 411.095C608.745 404.554 604.542 379.013 603.768 377.119L603.74 377.265Z" fill="#46231F"/>
<path fill-rule="evenodd" clip-rule="evenodd" d="M597.991 606.438C597.991 606.438 597.419 653.294 620.514 653.933C643.608 654.573 657.103 613.915 657.103 613.915C657.103 613.915 661.745 675.505 627.484 676.516C593.223 677.527 588.775 633.501 598.005 606.365L597.991 606.438Z" fill="#8C523D"/>
<path fill-rule="evenodd" clip-rule="evenodd" d="M539.692 338.188C564.443 335.97 589.3 335.143 614.144 335.711C636.222 336.367 658.032 340.733 678.662 348.626L675.345 369.461C682.439 368.275 689.673 368.18 696.796 369.178C704.003 370.559 710.947 373.07 717.371 376.618C719.058 366.806 721.374 357.113 724.307 347.6C724.307 347.6 799.97 348.693 834.257 354.668C868.543 360.642 891.239 364.543 891.239 364.543L886.828 387.521L910.554 390.406L900.716 433.359L884.485 422.656L865.809 488.723C865.809 488.723 840.62 493.069 788.11 485.19C759.83 481.699 732.377 473.296 706.987 460.362C706.987 460.362 709.319 425.68 714.781 391.295C708.238 387.366 701.084 384.556 693.615 382.984C686.881 382.383 680.101 382.558 673.408 383.506L662.31 452.393C662.31 452.393 602.905 452.371 579.005 451.578C567.979 451.659 556.98 450.465 546.228 448.018C539.805 411.789 537.636 374.934 539.765 338.202L539.692 338.188ZM739.824 367.953C739.824 367.953 785.233 368.551 811.506 372C828.758 374.367 845.813 377.995 862.534 382.857L841.689 474.457C814.465 471.733 787.397 467.626 760.589 462.153C748.421 459.326 736.436 455.759 724.703 451.471C724.703 451.471 740.263 368.037 739.677 367.925L739.824 367.953ZM558.258 354.119C577.645 351.668 597.177 350.55 616.716 350.772C631.476 350.966 646.136 353.218 660.273 357.463L651.287 440.641L559.305 436.415C559.305 436.415 554.227 369.582 558.331 354.133L558.258 354.119Z" fill="#42231E"/>
<path fill-rule="evenodd" clip-rule="evenodd" d="M680.206 385.645C680.206 385.645 648.952 450.436 624.372 482.441C607.8 503.387 589.257 522.695 568.995 540.097C593.961 545.209 619.414 547.55 644.894 547.079C683.523 545.844 688.685 538.716 688.685 538.716C688.685 538.716 709.486 458.413 680.189 385.338L680.206 385.645Z" fill="#E57373"/>
<path d="M40.7816 584.663L33.5994 581.455C27.854 579.813 21.951 578.68 16.006 578.078C12.9559 577.745 9.96577 578.307 7.61234 579.654C5.25892 581 3.70858 583.037 3.26058 585.371C2.81258 587.705 3.49864 590.171 5.18615 592.293C6.87367 594.416 9.44343 596.044 12.3997 596.865C18.1452 598.507 24.0482 599.64 29.9932 600.242C32.5449 600.732 35.3357 599.976 37.8527 599.921C40.6685 600.11 43.3866 599.529 45.5481 598.277C47.167 597.391 48.2363 596.019 48.5396 594.439C48.843 592.858 48.3577 591.188 47.1818 589.766C45.823 587.572 43.5521 585.761 40.7816 584.663Z" fill="#DA2D57"/>
</g>
<defs>
<clipPath id="clip0_373_493">
<rect width="1136.1" height="1136.1" fill="white" transform="translate(214.164 -85) rotate(10.8657)"/>
</clipPath>
</defs>
</svg>
